<?xml version="1.0" encoding="UTF-8"?>
<!--Generator: Apple Native CoreSVG 341-->
<!DOCTYPE svg
PUBLIC "-//W3C//DTD SVG 1.1//EN"
       "http://www.w3.org/Graphics/SVG/1.1/DTD/svg11.dtd">
<svg version="1.1" xmlns="http://www.w3.org/2000/svg" xmlns:xlink="http://www.w3.org/1999/xlink" viewBox="0 0 327.75 328.125">
 <g>
  <rect height="328.125" opacity="0" width="327.75" x="0" y="0"/>
  <path d="M0 164C0 211.375 20.375 254.125 52.75 283.875C54.5 285.625 56.5 285.5 58 283.75L64.625 276.5C66.125 274.5 66 272.75 64.25 271.125C35.5 244.375 17.125 206.125 17.125 164C17.125 83.875 83.5 17.375 163.875 17.375C244.375 17.375 310.625 83.875 310.625 164C310.625 206.25 292.125 244.625 263.25 271.25C261.5 273 261.375 274.75 262.875 276.625L269.5 284C271 285.75 273 285.875 274.625 284.125C307.25 254.375 327.75 211.5 327.75 164C327.75 74.125 254.375 0 163.875 0C73.5 0 0 74.125 0 164Z" fill="black" fill-opacity="0.85"/>
  <path d="M47 164C47 197.375 61.125 227.375 84 248.625C85.75 250.375 87.75 250.125 89.25 248.375L95.75 241.375C97.5 239.625 97.25 237.625 95.625 235.75C76.375 217.875 64.25 192.25 64.25 164C64.25 109.5 109.25 64.375 163.875 64.375C218.625 64.375 263.5 109.5 263.5 164C263.5 192.375 251.375 218.125 232 235.875C230.375 237.75 230.125 239.75 231.75 241.5L238.375 248.75C239.875 250.5 241.875 250.625 243.625 248.875C266.5 227.625 280.875 197.5 280.875 164C280.875 99.875 228.375 47 163.875 47C99.375 47 47 99.875 47 164Z" fill="black" fill-opacity="0.85"/>
  <path d="M93.875 164C93.875 183.25 102.125 200.75 115.125 213C116.75 214.75 118.75 214.75 120.375 212.875L127 206C128.75 204.125 128.625 202.25 127.125 200.375C117.375 191.375 111.25 178.25 111.25 164C111.25 135.25 135.125 111.25 163.875 111.25C192.625 111.25 216.625 135.25 216.625 164C216.625 178.375 210.375 191.625 200.375 200.625C198.875 202.5 198.75 204.375 200.5 206.25L207.25 213.25C208.875 215 210.75 215 212.375 213.25C225.625 201 233.875 183.375 233.875 164C233.875 125.625 202.5 94 163.875 94C125.375 94 93.875 125.625 93.875 164Z" fill="black" fill-opacity="0.85"/>
  <path d="M65 322.75L262.25 322.75C268.875 322.75 271.375 315.75 267.25 311L169.875 200.875C166.625 197.125 160.75 197.125 157.5 200.875L60.125 311C55.875 315.875 58.5 322.75 65 322.75Z" fill="black" fill-opacity="0.85"/>
 </g>
</svg>
