<?xml version="1.0" encoding="UTF-8"?>
<!--Generator: Apple Native CoreSVG 341-->
<!DOCTYPE svg
PUBLIC "-//W3C//DTD SVG 1.1//EN"
       "http://www.w3.org/Graphics/SVG/1.1/DTD/svg11.dtd">
<svg version="1.1" xmlns="http://www.w3.org/2000/svg" xmlns:xlink="http://www.w3.org/1999/xlink" viewBox="0 0 352.125 349.125">
 <g>
  <rect height="349.125" opacity="0" width="352.125" x="0" y="0"/>
  <path d="M95 349.125C101.875 349.125 106.625 345.5 114.75 338.25L171.125 288.625L281.625 288.625C326.875 288.625 352.125 262.75 352.125 218.25L352.125 90.75C352.125 46.125 326.875 20.25 281.625 20.25L70.5 20.25C25.125 20.25 0 46 0 90.75L0 218.25C0 263 25.125 288.625 70.5 288.625L79.875 288.625L79.875 331.625C79.875 342.25 85.375 349.125 95 349.125ZM100.5 324L100.5 277C100.5 269.375 97.625 266.5 90.125 266.5L70.625 266.5C38.375 266.5 22.125 249.25 22.125 218L22.125 90.875C22.125 59.625 38.375 42.375 70.625 42.375L281.5 42.375C313.375 42.375 330 59.625 330 90.875L330 218C330 249.25 313.375 266.5 281.5 266.5L170.625 266.5C162.75 266.5 158.625 267.75 153.125 273.375Z" fill="black" fill-opacity="0.85"/>
  <path d="M98 137.625C98 155.875 109.625 169.875 127.75 169.875C134.75 169.875 141.5 168.25 145.875 162.875L147.25 162.875C141.375 177 127.875 185.875 118 188.5C112.375 190 110.625 192.5 110.625 196.125C110.625 200 113.75 203.125 118.125 203.125C133.5 203.125 166.75 184.375 166.75 143.625C166.75 121.375 152 105.125 131.75 105.125C112.5 105.125 98 118.75 98 137.625ZM185.625 137.625C185.625 155.875 197.25 169.875 215.375 169.875C222.375 169.875 229.125 168.25 233.5 162.875L234.75 162.875C229 177 215.5 185.875 205.625 188.5C200 190 198.25 192.5 198.25 196.125C198.25 200 201.375 203.125 205.75 203.125C221.125 203.125 254.25 184.375 254.25 143.625C254.25 121.375 239.5 105.125 219.25 105.125C200.125 105.125 185.625 118.75 185.625 137.625Z" fill="black" fill-opacity="0.85"/>
 </g>
</svg>
