<svg xmlns="http://www.w3.org/2000/svg" width="100" height="88" viewBox="0 0 100 54">
  <path d="M13.46 44.14L13.46 0L3.60 0L3.60 54L34.27 54L34.27 44.14ZM77.76 0C72.43 0 67.68 3.10 64.37 7.70C60.98 3.10 56.23 0 50.90 0C40.68 0 32.62 7.70 32.62 22.25L32.62 54L42.34 54L42.34 22.97C42.34 16.06 44.71 9.72 50.90 9.72C57.10 9.72 59.47 18.22 59.47 22.97L59.47 54L69.19 54L69.19 22.97C69.19 18.22 71.57 9.72 77.76 9.72C83.95 9.72 86.33 16.06 86.33 22.97L86.33 54L96.05 54L96.05 22.25C96.05 7.70 87.98 0 77.76 0Z"/>
</svg>